<svg height="1024" viewBox="0 0 1024 1024" width="1024" xmlns="http://www.w3.org/2000/svg"><g fill="none" fill-rule="evenodd"><path d="m0 0h1024v1024h-1024z" fill="#f66948"/><path d="m512 110c220.929782 0 400 166.519502 400 371.871145s-179.070218 371.851845-400 371.851845c-40.055406.039447-79.91736-5.533934-118.414851-16.556414l-134.246973 76.046275v-143.053592c-89.917676-68.178199-147.338176-172.016862-147.338176-288.307414 0-205.36451 179.070218-371.851845 400-371.851845zm277.592084 211.069005c-26.875876 0-48.663078 21.725898-48.663078 48.526151 0 15.045235 6.866282 28.491277 17.64452 37.392111l-96.942557 198.695204c-3.328425-.717237-6.783593-1.094939-10.327227-1.094939-3.54399 0-6.999495.377778-10.328228 1.095155l-96.953629-198.719296c10.761616-8.900994 17.615631-22.336447 17.615631-37.368235 0-26.800253-21.787202-48.526151-48.663078-48.526151s-48.663078 21.725898-48.663078 48.526151c0 15.031748 6.853977 28.467168 17.615543 37.368163l-96.954543 198.719152c-3.328424-.717237-6.783592-1.094939-10.327226-1.094939s-6.998802.377702-10.327227 1.094939l-96.954543-198.719152c10.761566-8.900995 17.615543-22.336415 17.615543-37.368163 0-26.800253-21.787202-48.526151-48.663077-48.526151-26.875876 0-48.663078 21.725898-48.663078 48.526151 0 26.800252 21.787202 48.52615 48.663078 48.52615 3.542923 0 6.997415-.377551 10.325223-1.094508l96.945681 198.727711c-10.755314 8.901049-17.604678 22.332485-17.604678 37.359173 0 26.800253 21.787202 48.52615 48.663078 48.52615 26.875875 0 48.663077-21.725897 48.663077-48.52615 0-15.026656-6.849334-28.458066-17.604609-37.359117l96.944611-198.727982c3.328116.717096 6.782946 1.094723 10.326225 1.094723 3.543278 0 6.998108-.377627 10.326225-1.094723l96.94461 198.727982c-10.755274 8.901051-17.604609 22.332461-17.604609 37.359117 0 26.800253 21.787202 48.52615 48.663078 48.52615s48.663078-21.725897 48.663078-48.52615c0-15.027119-6.849757-28.458894-17.605603-37.359939l96.942714-198.718973c3.316389.711783 6.758383 1.086536 10.288153 1.086536 26.875876 0 48.663078-21.725898 48.663078-48.52615 0-26.800253-21.787202-48.526151-48.663078-48.526151z" fill="#fff" fill-rule="nonzero"/></g></svg>